<?xml version="1.0" encoding="UTF-8" standalone="no"?>
<svg
   xmlns:dc="http://purl.org/dc/elements/1.1/"
   xmlns:cc="http://creativecommons.org/ns#"
   xmlns:rdf="http://www.w3.org/1999/02/22-rdf-syntax-ns#"
   xmlns:svg="http://www.w3.org/2000/svg"
   xmlns="http://www.w3.org/2000/svg"
   xmlns:sodipodi="http://sodipodi.sourceforge.net/DTD/sodipodi-0.dtd"
   xmlns:inkscape="http://www.inkscape.org/namespaces/inkscape"
   version="1.1"
   id="svg2"
   xml:space="preserve"
   width="45.354801"
   height="45.354134"
   viewBox="0 0 45.354801 45.354134"
   sodipodi:docname="4.ai"><metadata
     id="metadata8"><rdf:RDF><cc:Work
         rdf:about=""><dc:format>image/svg+xml</dc:format><dc:type
           rdf:resource="http://purl.org/dc/dcmitype/StillImage" /></cc:Work></rdf:RDF></metadata><defs
     id="defs6"><clipPath
       clipPathUnits="userSpaceOnUse"
       id="clipPath18"><path
         d="M 0,34.016 H 34.016 V 0 H 0 Z"
         id="path16" /></clipPath></defs><sodipodi:namedview
     pagecolor="#ffffff"
     bordercolor="#666666"
     borderopacity="1"
     objecttolerance="10"
     gridtolerance="10"
     guidetolerance="10"
     inkscape:pageopacity="0"
     inkscape:pageshadow="2"
     inkscape:window-width="640"
     inkscape:window-height="480"
     id="namedview4" /><g
     id="g10"
     inkscape:groupmode="layer"
     inkscape:label="4"
     transform="matrix(1.3333333,0,0,-1.3333333,0,45.354133)"><g
       id="g12"><g
         id="g14"
         clip-path="url(#clipPath18)"><g
           id="g20"
           transform="translate(17.0078)"><path
             d="M 0,0 C 9.393,0 17.008,7.614 17.008,17.008 17.008,26.4 9.393,34.016 0,34.016 -9.393,34.016 -17.008,26.4 -17.008,17.008 -17.008,7.614 -9.393,0 0,0"
             style="fill:#4c4c4c;fill-opacity:1;fill-rule:nonzero;stroke:none"
             id="path22" /></g><g
           id="g24"
           transform="translate(12.9048,19.8877)"><path
             d="m 0,0 h 1.758 v 1.709 c 0,0.753 0.019,1.916 0.567,2.635 0.576,0.762 1.368,1.281 2.729,1.281 2.218,0 3.153,-0.317 3.153,-0.317 L 7.767,2.703 c 0,0 -0.733,0.212 -1.416,0.212 C 5.667,2.915 5.054,2.67 5.054,1.986 V 0 H 7.858 L 7.663,-2.544 H 5.054 v -8.84 H 1.758 v 8.84 l -1.758,0 z"
             style="fill:#ffffff;fill-opacity:1;fill-rule:nonzero;stroke:none"
             id="path26" /></g></g></g></g></svg>
