<?xml version="1.0" encoding="UTF-8" standalone="no"?>
<svg
   xmlns:dc="http://purl.org/dc/elements/1.1/"
   xmlns:cc="http://creativecommons.org/ns#"
   xmlns:rdf="http://www.w3.org/1999/02/22-rdf-syntax-ns#"
   xmlns:svg="http://www.w3.org/2000/svg"
   xmlns="http://www.w3.org/2000/svg"
   xmlns:sodipodi="http://sodipodi.sourceforge.net/DTD/sodipodi-0.dtd"
   xmlns:inkscape="http://www.inkscape.org/namespaces/inkscape"
   version="1.1"
   id="svg2"
   xml:space="preserve"
   width="45.355469"
   height="45.354134"
   viewBox="0 0 45.355469 45.354134"
   sodipodi:docname="3.ai"><metadata
     id="metadata8"><rdf:RDF><cc:Work
         rdf:about=""><dc:format>image/svg+xml</dc:format><dc:type
           rdf:resource="http://purl.org/dc/dcmitype/StillImage" /></cc:Work></rdf:RDF></metadata><defs
     id="defs6"><clipPath
       clipPathUnits="userSpaceOnUse"
       id="clipPath18"><path
         d="M 0,34.016 H 34.017 V 0 H 0 Z"
         id="path16" /></clipPath></defs><sodipodi:namedview
     pagecolor="#ffffff"
     bordercolor="#666666"
     borderopacity="1"
     objecttolerance="10"
     gridtolerance="10"
     guidetolerance="10"
     inkscape:pageopacity="0"
     inkscape:pageshadow="2"
     inkscape:window-width="640"
     inkscape:window-height="480"
     id="namedview4" /><g
     id="g10"
     inkscape:groupmode="layer"
     inkscape:label="3"
     transform="matrix(1.3333333,0,0,-1.3333333,0,45.354133)"><g
       id="g12"><g
         id="g14"
         clip-path="url(#clipPath18)"><g
           id="g20"
           transform="translate(17.0088)"><path
             d="m 0,0 c 9.394,0 17.008,7.615 17.008,17.008 0,9.393 -7.614,17.008 -17.008,17.008 -9.393,0 -17.009,-7.615 -17.009,-17.008 C -17.009,7.615 -9.393,0 0,0"
             style="fill:#4c4c4c;fill-opacity:1;fill-rule:nonzero;stroke:none"
             id="path22" /></g><g
           id="g24"
           transform="translate(25.2036,18.2505)"><path
             d="m 0,0 h -2.051 v 2.05 h -1.65 V 0 h -2.05 v -1.65 h 2.05 v -2.051 h 1.65 V -1.65 H 0 Z m -7.664,-2.484 c -0.476,0.337 -1.386,1.156 -1.386,1.638 0,0.566 0.161,0.843 1.011,1.507 0.871,0.681 1.488,1.638 1.488,2.751 0,1.325 -0.591,2.616 -1.698,3.043 h 1.67 L -5.4,7.306 h -5.268 c -2.361,0 -4.583,-1.789 -4.583,-3.861 0,-2.117 1.609,-3.827 4.012,-3.827 0.167,0 0.329,0.004 0.488,0.015 -0.156,-0.298 -0.268,-0.635 -0.268,-0.983 0,-0.589 0.317,-1.067 0.717,-1.456 -0.302,0 -0.595,-0.009 -0.912,-0.009 -2.926,0 -5.177,-1.862 -5.177,-3.794 0,-1.903 2.468,-3.093 5.392,-3.093 3.335,0 5.177,1.892 5.177,3.795 0,1.526 -0.45,2.439 -1.842,3.423 m -2.814,2.639 c -1.356,0.041 -2.647,1.518 -2.88,3.3 -0.235,1.782 0.676,3.146 2.032,3.106 1.357,-0.041 2.647,-1.47 2.881,-3.252 0.234,-1.783 -0.676,-3.195 -2.033,-3.154 m -0.531,-9.015 c -2.022,0 -3.482,1.279 -3.482,2.817 0,1.506 1.811,2.761 3.833,2.739 0.472,-0.006 0.912,-0.081 1.311,-0.21 1.097,-0.764 1.884,-1.194 2.106,-2.065 0.042,-0.176 0.065,-0.357 0.065,-0.543 0,-1.538 -0.99,-2.738 -3.833,-2.738"
             style="fill:#ffffff;fill-opacity:1;fill-rule:nonzero;stroke:none"
             id="path26" /></g></g></g></g></svg>
