<?xml version="1.0" encoding="UTF-8" standalone="no"?>
<svg
   xmlns:dc="http://purl.org/dc/elements/1.1/"
   xmlns:cc="http://creativecommons.org/ns#"
   xmlns:rdf="http://www.w3.org/1999/02/22-rdf-syntax-ns#"
   xmlns:svg="http://www.w3.org/2000/svg"
   xmlns="http://www.w3.org/2000/svg"
   xmlns:sodipodi="http://sodipodi.sourceforge.net/DTD/sodipodi-0.dtd"
   xmlns:inkscape="http://www.inkscape.org/namespaces/inkscape"
   version="1.1"
   id="svg2"
   xml:space="preserve"
   width="45.355469"
   height="45.354134"
   viewBox="0 0 45.355469 45.354134"
   sodipodi:docname="5.ai"><metadata
     id="metadata8"><rdf:RDF><cc:Work
         rdf:about=""><dc:format>image/svg+xml</dc:format><dc:type
           rdf:resource="http://purl.org/dc/dcmitype/StillImage" /></cc:Work></rdf:RDF></metadata><defs
     id="defs6"><clipPath
       clipPathUnits="userSpaceOnUse"
       id="clipPath18"><path
         d="M 0,34.016 H 34.017 V 0 H 0 Z"
         id="path16" /></clipPath></defs><sodipodi:namedview
     pagecolor="#ffffff"
     bordercolor="#666666"
     borderopacity="1"
     objecttolerance="10"
     gridtolerance="10"
     guidetolerance="10"
     inkscape:pageopacity="0"
     inkscape:pageshadow="2"
     inkscape:window-width="640"
     inkscape:window-height="480"
     id="namedview4" /><g
     id="g10"
     inkscape:groupmode="layer"
     inkscape:label="5"
     transform="matrix(1.3333333,0,0,-1.3333333,0,45.354133)"><g
       id="g12"><g
         id="g14"
         clip-path="url(#clipPath18)"><g
           id="g20"
           transform="translate(17.0083)"><path
             d="M 0,0 C 9.394,0 17.008,7.614 17.008,17.008 17.008,26.4 9.394,34.016 0,34.016 -9.393,34.016 -17.008,26.4 -17.008,17.008 -17.008,7.614 -9.393,0 0,0"
             style="fill:#4c4c4c;fill-opacity:1;fill-rule:nonzero;stroke:none"
             id="path22" /></g><g
           id="g24"
           transform="translate(17.0088,25.5566)"><path
             d="m 0,0 c -4.696,0 -8.504,-3.807 -8.504,-8.504 0,-3.482 2.094,-6.474 5.091,-7.788 -0.025,0.593 -0.004,1.306 0.147,1.952 0.164,0.69 1.094,4.634 1.094,4.634 0,0 -0.271,0.543 -0.271,1.345 0,1.261 0.731,2.202 1.64,2.202 0.773,0 1.147,-0.581 1.147,-1.277 0,-0.778 -0.496,-1.94 -0.751,-3.018 -0.213,-0.902 0.452,-1.637 1.342,-1.637 1.611,0 2.696,2.069 2.696,4.521 0,1.863 -1.255,3.258 -3.538,3.258 -2.579,0 -4.186,-1.923 -4.186,-4.072 0,-0.741 0.218,-1.263 0.56,-1.668 0.158,-0.186 0.179,-0.261 0.122,-0.474 -0.04,-0.156 -0.134,-0.534 -0.173,-0.682 -0.057,-0.216 -0.231,-0.293 -0.425,-0.213 -1.189,0.485 -1.742,1.786 -1.742,3.248 0,2.416 2.037,5.313 6.077,5.313 3.247,0 5.384,-2.35 5.384,-4.871 0,-3.337 -1.855,-5.829 -4.589,-5.829 -0.917,0 -1.781,0.497 -2.077,1.06 0,0 -0.494,-1.959 -0.598,-2.337 -0.18,-0.656 -0.533,-1.311 -0.856,-1.822 0.764,-0.226 1.573,-0.349 2.41,-0.349 4.696,0 8.503,3.808 8.503,8.504 C 8.503,-3.807 4.696,0 0,0"
             style="fill:#ffffff;fill-opacity:1;fill-rule:nonzero;stroke:none"
             id="path26" /></g></g></g></g></svg>
