<?xml version="1.0" encoding="UTF-8" standalone="no"?>
<svg
   xmlns:dc="http://purl.org/dc/elements/1.1/"
   xmlns:cc="http://creativecommons.org/ns#"
   xmlns:rdf="http://www.w3.org/1999/02/22-rdf-syntax-ns#"
   xmlns:svg="http://www.w3.org/2000/svg"
   xmlns="http://www.w3.org/2000/svg"
   xmlns:sodipodi="http://sodipodi.sourceforge.net/DTD/sodipodi-0.dtd"
   xmlns:inkscape="http://www.inkscape.org/namespaces/inkscape"
   version="1.1"
   id="svg2"
   xml:space="preserve"
   width="45.3568"
   height="45.354134"
   viewBox="0 0 45.3568 45.354134"
   sodipodi:docname="2.ai"><metadata
     id="metadata8"><rdf:RDF><cc:Work
         rdf:about=""><dc:format>image/svg+xml</dc:format><dc:type
           rdf:resource="http://purl.org/dc/dcmitype/StillImage" /></cc:Work></rdf:RDF></metadata><defs
     id="defs6"><clipPath
       clipPathUnits="userSpaceOnUse"
       id="clipPath18"><path
         d="M 0,34.016 H 34.018 V 0 H 0 Z"
         id="path16" /></clipPath></defs><sodipodi:namedview
     pagecolor="#ffffff"
     bordercolor="#666666"
     borderopacity="1"
     objecttolerance="10"
     gridtolerance="10"
     guidetolerance="10"
     inkscape:pageopacity="0"
     inkscape:pageshadow="2"
     inkscape:window-width="640"
     inkscape:window-height="480"
     id="namedview4" /><g
     id="g10"
     inkscape:groupmode="layer"
     inkscape:label="2"
     transform="matrix(1.3333333,0,0,-1.3333333,0,45.354133)"><g
       id="g12"><g
         id="g14"
         clip-path="url(#clipPath18)"><g
           id="g20"
           transform="translate(17.0088)"><path
             d="m 0,0 c 9.394,0 17.009,7.615 17.009,17.008 0,9.393 -7.615,17.008 -17.009,17.008 -9.394,0 -17.009,-7.615 -17.009,-17.008 C -17.009,7.615 -9.394,0 0,0"
             style="fill:#4c4c4c;fill-opacity:1;fill-rule:nonzero;stroke:none"
             id="path22" /></g><g
           id="g24"
           transform="translate(17.1934,25.5117)"><path
             d="M 0,0 V -4.299 H 4.035 V -6.968 H 0 v -4.362 c 0,-0.986 0.052,-1.619 0.156,-1.898 0.104,-0.281 0.298,-0.504 0.584,-0.672 0.375,-0.225 0.805,-0.337 1.29,-0.337 0.862,0 1.717,0.28 2.57,0.84 v -2.684 c -0.728,-0.341 -1.385,-0.582 -1.974,-0.719 -0.59,-0.139 -1.227,-0.208 -1.911,-0.208 -0.778,0 -1.466,0.099 -2.063,0.294 -0.596,0.198 -1.107,0.477 -1.528,0.84 -0.422,0.364 -0.716,0.751 -0.878,1.161 -0.163,0.408 -0.244,1.002 -0.244,1.78 v 5.965 h -1.881 v 2.406 c 0.67,0.218 1.241,0.529 1.718,0.934 0.475,0.405 0.859,0.891 1.146,1.461 0.288,0.566 0.488,1.29 0.596,2.167 z"
             style="fill:#ffffff;fill-opacity:1;fill-rule:nonzero;stroke:none"
             id="path26" /></g></g></g></g></svg>
