<?xml version="1.0" encoding="UTF-8" standalone="no"?>
<svg
   xmlns:dc="http://purl.org/dc/elements/1.1/"
   xmlns:cc="http://creativecommons.org/ns#"
   xmlns:rdf="http://www.w3.org/1999/02/22-rdf-syntax-ns#"
   xmlns:svg="http://www.w3.org/2000/svg"
   xmlns="http://www.w3.org/2000/svg"
   xmlns:sodipodi="http://sodipodi.sourceforge.net/DTD/sodipodi-0.dtd"
   xmlns:inkscape="http://www.inkscape.org/namespaces/inkscape"
   version="1.1"
   id="svg2"
   xml:space="preserve"
   width="45.354801"
   height="45.354134"
   viewBox="0 0 45.354801 45.354134"
   sodipodi:docname="6.ai"><metadata
     id="metadata8"><rdf:RDF><cc:Work
         rdf:about=""><dc:format>image/svg+xml</dc:format><dc:type
           rdf:resource="http://purl.org/dc/dcmitype/StillImage" /></cc:Work></rdf:RDF></metadata><defs
     id="defs6"><clipPath
       clipPathUnits="userSpaceOnUse"
       id="clipPath18"><path
         d="M 0,34.016 H 34.016 V 0 H 0 Z"
         id="path16" /></clipPath></defs><sodipodi:namedview
     pagecolor="#ffffff"
     bordercolor="#666666"
     borderopacity="1"
     objecttolerance="10"
     gridtolerance="10"
     guidetolerance="10"
     inkscape:pageopacity="0"
     inkscape:pageshadow="2"
     inkscape:window-width="640"
     inkscape:window-height="480"
     id="namedview4" /><g
     id="g10"
     inkscape:groupmode="layer"
     inkscape:label="6"
     transform="matrix(1.3333333,0,0,-1.3333333,0,45.354133)"><g
       id="g12"><g
         id="g14"
         clip-path="url(#clipPath18)"><g
           id="g20"
           transform="translate(17.0083)"><path
             d="M 0,0 C 9.393,0 17.008,7.614 17.008,17.008 17.008,26.4 9.393,34.016 0,34.016 -9.394,34.016 -17.008,26.4 -17.008,17.008 -17.008,7.614 -9.394,0 0,0"
             style="fill:#4c4c4c;fill-opacity:1;fill-rule:nonzero;stroke:none"
             id="path22" /></g><g
           id="g24"
           transform="translate(25.541,21.4634)"><path
             d="m 0,0 c -0.626,-0.278 -1.301,-0.466 -2.007,-0.55 0.722,0.432 1.276,1.117 1.536,1.933 -0.675,-0.401 -1.423,-0.691 -2.22,-0.847 -0.636,0.679 -1.545,1.103 -2.551,1.103 -1.929,0 -3.494,-1.565 -3.494,-3.495 0,-0.274 0.029,-0.54 0.09,-0.796 -2.905,0.146 -5.48,1.536 -7.205,3.652 -0.301,-0.518 -0.473,-1.118 -0.473,-1.758 0,-1.212 0.617,-2.282 1.555,-2.909 -0.573,0.017 -1.112,0.176 -1.584,0.436 v -0.043 c 0,-1.694 1.205,-3.107 2.805,-3.427 -0.294,-0.082 -0.602,-0.123 -0.922,-0.123 -0.225,0 -0.445,0.021 -0.657,0.062 0.444,-1.388 1.735,-2.4 3.265,-2.426 -1.197,-0.938 -2.704,-1.497 -4.341,-1.497 -0.282,0 -0.561,0.016 -0.834,0.048 1.547,-0.99 3.384,-1.57 5.358,-1.57 6.43,0 9.945,5.326 9.945,9.945 0,0.152 -0.003,0.304 -0.01,0.452 C -1.061,-1.316 -0.467,-0.701 0,0"
             style="fill:#ffffff;fill-opacity:1;fill-rule:nonzero;stroke:none"
             id="path26" /></g></g></g></g></svg>
