<?xml version="1.0" encoding="UTF-8" standalone="no"?>
<svg
   xmlns:dc="http://purl.org/dc/elements/1.1/"
   xmlns:cc="http://creativecommons.org/ns#"
   xmlns:rdf="http://www.w3.org/1999/02/22-rdf-syntax-ns#"
   xmlns:svg="http://www.w3.org/2000/svg"
   xmlns="http://www.w3.org/2000/svg"
   xmlns:sodipodi="http://sodipodi.sourceforge.net/DTD/sodipodi-0.dtd"
   xmlns:inkscape="http://www.inkscape.org/namespaces/inkscape"
   version="1.1"
   id="svg2"
   xml:space="preserve"
   width="45.3568"
   height="45.354134"
   viewBox="0 0 45.3568 45.354134"
   sodipodi:docname="1.ai"><metadata
     id="metadata8"><rdf:RDF><cc:Work
         rdf:about=""><dc:format>image/svg+xml</dc:format><dc:type
           rdf:resource="http://purl.org/dc/dcmitype/StillImage" /></cc:Work></rdf:RDF></metadata><defs
     id="defs6"><clipPath
       clipPathUnits="userSpaceOnUse"
       id="clipPath18"><path
         d="M 0,34.016 H 34.018 V 0 H 0 Z"
         id="path16" /></clipPath></defs><sodipodi:namedview
     pagecolor="#ffffff"
     bordercolor="#666666"
     borderopacity="1"
     objecttolerance="10"
     gridtolerance="10"
     guidetolerance="10"
     inkscape:pageopacity="0"
     inkscape:pageshadow="2"
     inkscape:window-width="640"
     inkscape:window-height="480"
     id="namedview4" /><g
     id="g10"
     inkscape:groupmode="layer"
     inkscape:label="1"
     transform="matrix(1.3333333,0,0,-1.3333333,0,45.354133)"><g
       id="g12"><g
         id="g14"
         clip-path="url(#clipPath18)"><g
           id="g20"
           transform="translate(17.0088)"><path
             d="m 0,0 c 9.394,0 17.009,7.615 17.009,17.008 0,9.393 -7.615,17.008 -17.009,17.008 -9.393,0 -17.009,-7.615 -17.009,-17.008 C -17.009,7.615 -9.393,0 0,0"
             style="fill:#4c4c4c;fill-opacity:1;fill-rule:nonzero;stroke:none"
             id="path22" /></g><g
           id="g24"
           transform="translate(25.5029,20.5591)"><path
             d="m 0,0 c -0.074,-1.654 -1.232,-3.915 -3.466,-6.784 -2.312,-3 -4.271,-4.499 -5.872,-4.499 -0.99,0 -1.829,0.912 -2.515,2.742 -0.459,1.679 -0.915,3.358 -1.373,5.032 -0.509,1.831 -1.055,2.746 -1.639,2.746 -0.127,0 -0.571,-0.267 -1.334,-0.801 l -0.8,1.03 c 0.838,0.735 1.664,1.473 2.478,2.209 1.117,0.967 1.956,1.473 2.516,1.526 1.319,0.128 2.134,-0.775 2.441,-2.705 0.327,-2.085 0.557,-3.382 0.684,-3.89 0.382,-1.728 0.8,-2.59 1.258,-2.59 0.354,0 0.889,0.558 1.601,1.675 0.711,1.119 1.091,1.97 1.143,2.556 0.102,0.965 -0.279,1.445 -1.143,1.445 -0.407,0 -0.827,-0.086 -1.258,-0.266 0.84,2.72 2.44,4.041 4.803,3.964 C -0.724,3.341 0.103,2.209 0,0"
             style="fill:#ffffff;fill-opacity:1;fill-rule:nonzero;stroke:none"
             id="path26" /></g></g></g></g></svg>
